<?xml version="1.0" encoding="UTF-8" standalone="no"?>
<!-- Created with Inkscape (http://www.inkscape.org/) -->
<svg
   xmlns:dc="http://purl.org/dc/elements/1.1/"
   xmlns:cc="http://creativecommons.org/ns#"
   xmlns:rdf="http://www.w3.org/1999/02/22-rdf-syntax-ns#"
   xmlns:svg="http://www.w3.org/2000/svg"
   xmlns="http://www.w3.org/2000/svg"
   xmlns:sodipodi="http://sodipodi.sourceforge.net/DTD/sodipodi-0.dtd"
   xmlns:inkscape="http://www.inkscape.org/namespaces/inkscape"
   width="320.20233"
   height="282.23233"
   id="svg2"
   sodipodi:version="0.32"
   inkscape:version="0.46"
   version="1.0"
   sodipodi:docname="Auburn University Athletics logo.svg"
   inkscape:output_extension="org.inkscape.output.svg.inkscape">
  <defs
     id="defs4">
    <inkscape:perspective
       sodipodi:type="inkscape:persp3d"
       inkscape:vp_x="0 : 526.18109 : 1"
       inkscape:vp_y="0 : 1000 : 0"
       inkscape:vp_z="744.09448 : 526.18109 : 1"
       inkscape:persp3d-origin="372.04724 : 350.78739 : 1"
       id="perspective10" />
    <clipPath
       id="clipPath2980"
       clipPathUnits="userSpaceOnUse">
      <path
         id="path2982"
         d="M 1,454.402 L 613,454.402 L 613,616.402 L 1,616.402 L 1,454.402 z" />
    </clipPath>
    <clipPath
       id="clipPath2972"
       clipPathUnits="userSpaceOnUse">
      <path
         id="path2974"
         d="M 1,454.402 L 613,454.402 L 613,616.402 L 1,616.402 L 1,454.402 z" />
    </clipPath>
    <clipPath
       id="clipPath2964"
       clipPathUnits="userSpaceOnUse">
      <path
         id="path2966"
         d="M 1,454.402 L 613,454.402 L 613,616.402 L 1,616.402 L 1,454.402 z" />
    </clipPath>
    <clipPath
       id="clipPath2956"
       clipPathUnits="userSpaceOnUse">
      <path
         id="path2958"
         d="M 1,454.402 L 613,454.402 L 613,616.402 L 1,616.402 L 1,454.402 z" />
    </clipPath>
    <clipPath
       id="clipPath2612"
       clipPathUnits="userSpaceOnUse">
      <path
         id="path2614"
         d="M 188,315.4 L 368,315.4 L 368,444.04 L 188,444.04 L 188,315.4 z" />
    </clipPath>
    <clipPath
       id="clipPath2604"
       clipPathUnits="userSpaceOnUse">
      <path
         id="path2606"
         d="M 188,315.4 L 368,315.4 L 368,444.04 L 188,444.04 L 188,315.4 z" />
    </clipPath>
    <clipPath
       id="clipPath2596"
       clipPathUnits="userSpaceOnUse">
      <path
         id="path2598"
         d="M 188,315.4 L 368,315.4 L 368,444.04 L 188,444.04 L 188,315.4 z" />
    </clipPath>
    <clipPath
       id="clipPath2588"
       clipPathUnits="userSpaceOnUse">
      <path
         id="path2590"
         d="M 188,315.4 L 368,315.4 L 368,444.04 L 188,444.04 L 188,315.4 z" />
    </clipPath>
    <clipPath
       id="clipPath2574"
       clipPathUnits="userSpaceOnUse">
      <path
         id="path2576"
         d="M -1,315.56 L 179,315.56 L 179,444.2 L -1,444.2 L -1,315.56 z" />
    </clipPath>
    <clipPath
       id="clipPath2566"
       clipPathUnits="userSpaceOnUse">
      <path
         id="path2568"
         d="M -1,315.56 L 179,315.56 L 179,444.201 L -1,444.201 L -1,315.56 z" />
    </clipPath>
    <clipPath
       id="clipPath2558"
       clipPathUnits="userSpaceOnUse">
      <path
         id="path2560"
         d="M -1,315.56 L 179,315.56 L 179,444.201 L -1,444.201 L -1,315.56 z" />
    </clipPath>
    <clipPath
       id="clipPath2550"
       clipPathUnits="userSpaceOnUse">
      <path
         id="path2552"
         d="M -1,315.56 L 179,315.56 L 179,444.201 L -1,444.201 L -1,315.56 z" />
    </clipPath>
    <clipPath
       id="clipPath2536"
       clipPathUnits="userSpaceOnUse">
      <path
         id="path2538"
         d="M 1,145.4 L 613,145.4 L 613,307.4 L 1,307.4 L 1,145.4 z" />
    </clipPath>
    <clipPath
       id="clipPath2528"
       clipPathUnits="userSpaceOnUse">
      <path
         id="path2530"
         d="M 1,145.4 L 613,145.4 L 613,307.4 L 1,307.4 L 1,145.4 z" />
    </clipPath>
    <clipPath
       id="clipPath2520"
       clipPathUnits="userSpaceOnUse">
      <path
         id="path2522"
         d="M 1,145.4 L 613,145.4 L 613,307.4 L 1,307.4 L 1,145.4 z" />
    </clipPath>
    <clipPath
       id="clipPath2512"
       clipPathUnits="userSpaceOnUse">
      <path
         id="path2514"
         d="M 1,937.4 L 613,937.4 L 613,145.4 L 1,145.4 L 1,937.4 z" />
    </clipPath>
    <clipPath
       id="clipPath2504"
       clipPathUnits="userSpaceOnUse">
      <path
         id="path2506"
         clip-rule="evenodd"
         d="M -43.787,190.453 C -43.787,190.453 330.43,100.347 621.601,190.453 L 621.601,124.311 L -48.912,124.311 L -43.787,190.453 z" />
    </clipPath>
    <clipPath
       id="clipPath2490"
       clipPathUnits="userSpaceOnUse">
      <path
         id="path2492"
         d="M 1,145.4 L 613,145.4 L 613,307.4 L 1,307.4 L 1,145.4 z" />
    </clipPath>
    <clipPath
       id="clipPath2482"
       clipPathUnits="userSpaceOnUse">
      <path
         id="path2484"
         d="M 1,145.4 L 613,145.4 L 613,307.4 L 1,307.4 L 1,145.4 z" />
    </clipPath>
    <clipPath
       id="clipPath2474"
       clipPathUnits="userSpaceOnUse">
      <path
         id="path2476"
         d="M 1,145.4 L 613,145.4 L 613,307.4 L 1,307.4 L 1,145.4 z" />
    </clipPath>
    <clipPath
       id="clipPath2466"
       clipPathUnits="userSpaceOnUse">
      <path
         id="path2468"
         d="M 1,937.4 L 613,937.4 L 613,145.4 L 1,145.4 L 1,937.4 z" />
    </clipPath>
    <clipPath
       id="clipPath2458"
       clipPathUnits="userSpaceOnUse">
      <path
         id="path2460"
         clip-rule="evenodd"
         d="M -50.501,211.548 C -50.501,211.548 330.43,104.187 621.602,194.293 L 621.602,128.151 L -48.913,128.151 L -50.501,211.548 z" />
    </clipPath>
    <clipPath
       id="clipPath2444"
       clipPathUnits="userSpaceOnUse">
      <path
         id="path2446"
         d="M 1,145.4 L 613,145.4 L 613,307.4 L 1,307.4 L 1,145.4 z" />
    </clipPath>
    <clipPath
       id="clipPath2436"
       clipPathUnits="userSpaceOnUse">
      <path
         id="path2438"
         d="M 1,145.4 L 613,145.4 L 613,307.4 L 1,307.4 L 1,145.4 z" />
    </clipPath>
    <clipPath
       id="clipPath2428"
       clipPathUnits="userSpaceOnUse">
      <path
         id="path2430"
         d="M 1,145.4 L 613,145.4 L 613,307.4 L 1,307.4 L 1,145.4 z" />
    </clipPath>
    <clipPath
       id="clipPath2420"
       clipPathUnits="userSpaceOnUse">
      <path
         id="path2422"
         d="M 1,145.4 L 613,145.4 L 613,307.4 L 1,307.4 L 1,145.4 z" />
    </clipPath>
    <clipPath
       id="clipPath2406"
       clipPathUnits="userSpaceOnUse">
      <path
         id="path2408"
         d="M 0,0 L 612,0 L 612,792 L 0,792 L 0,0 z" />
    </clipPath>
    <clipPath
       id="clipPath2398"
       clipPathUnits="userSpaceOnUse">
      <path
         id="path2400"
         d="M 0,792 L 612,792 L 612,0 L 0,0 L 0,792 z" />
    </clipPath>
    <inkscape:perspective
       id="perspective2390"
       inkscape:persp3d-origin="372.04724 : 350.78739 : 1"
       inkscape:vp_z="744.09448 : 526.18109 : 1"
       inkscape:vp_y="0 : 1000 : 0"
       inkscape:vp_x="0 : 526.18109 : 1"
       sodipodi:type="inkscape:persp3d" />
    <clipPath
       id="clipPath5451"
       clipPathUnits="userSpaceOnUse">
      <path
         id="path5453"
         d="M 538.583,696.614 L 621,696.614 L 621,739.134 L 538.583,739.134 L 538.583,696.614 z" />
    </clipPath>
    <clipPath
       id="clipPath5437"
       clipPathUnits="userSpaceOnUse">
      <path
         id="path5439"
         d="M 170.079,480.189 L 226.772,480.189 L 226.772,536.8821 L 170.079,536.8821 L 170.079,480.189 z" />
    </clipPath>
    <clipPath
       id="clipPath5417"
       clipPathUnits="userSpaceOnUse">
      <path
         id="path5419"
         d="M -7.668,650.2679 L 244.142,650.2679 L 244.142,801.8589 L -7.668,801.8589 L -7.668,650.2679 z" />
    </clipPath>
    <clipPath
       id="clipPath5403"
       clipPathUnits="userSpaceOnUse">
      <path
         id="path5405"
         d="M -9,395.15 L 170.079,395.15 L 170.079,480.189 L -9,480.189 L -9,395.15 z" />
    </clipPath>
    <clipPath
       id="clipPath5019"
       clipPathUnits="userSpaceOnUse">
      <path
         id="path5021"
         d="M 37.533,282.4632 L 37.533,236.758 L 120.0972,236.758 L 120.0972,282.4632" />
    </clipPath>
    <clipPath
       id="clipPath5011"
       clipPathUnits="userSpaceOnUse">
      <path
         id="path5013"
         d="M 36,236.022 L 127.961,236.022 L 127.961,287.83 L 36,287.83 L 36,236.022 z" />
    </clipPath>
    <inkscape:perspective
       id="perspective4989"
       inkscape:persp3d-origin="372.04724 : 350.78739 : 1"
       inkscape:vp_z="744.09448 : 526.18109 : 1"
       inkscape:vp_y="0 : 1000 : 0"
       inkscape:vp_x="0 : 526.18109 : 1"
       sodipodi:type="inkscape:persp3d" />
    <clipPath
       id="clipPath7775"
       clipPathUnits="userSpaceOnUse">
      <path
         id="path7777"
         d="M 0,0 L 612,0 L 612,792 L 0,792 L 0,0 z" />
    </clipPath>
    <clipPath
       id="clipPath7535"
       clipPathUnits="userSpaceOnUse">
      <path
         id="path7537"
         d="M 66.161,671.893 L 209.322,671.893 L 209.322,703.244 L 66.161,703.244 L 66.161,671.893 z" />
    </clipPath>
    <clipPath
       id="clipPath7299"
       clipPathUnits="userSpaceOnUse">
      <path
         id="path7301"
         d="M 92.04,442.442 L 182.695,442.442 L 182.695,509.824 L 92.04,509.824 L 92.04,442.442 z" />
    </clipPath>
    <clipPath
       id="clipPath7277"
       clipPathUnits="userSpaceOnUse">
      <path
         id="path7279"
         d="M 0,0 L 612,0 L 612,792 L 0,792 L 0,0 z" />
    </clipPath>
    <clipPath
       id="clipPath7039"
       clipPathUnits="userSpaceOnUse">
      <path
         id="path7041"
         d="M 456.409,332.506 L 566.904,332.506 L 566.904,367.215 L 456.409,367.215 L 456.409,332.506 z" />
    </clipPath>
    <clipPath
       id="clipPath7001"
       clipPathUnits="userSpaceOnUse">
      <path
         id="path7003"
         d="M 0,0 L 612,0 L 612,792 L 0,792 L 0,0 z" />
    </clipPath>
    <clipPath
       id="clipPath6985"
       clipPathUnits="userSpaceOnUse">
      <path
         id="path6987"
         d="M 282.192,719.807 L 574.294,719.807 L 574.294,322.861 L 282.192,322.861 L 282.192,719.807 z" />
    </clipPath>
    <clipPath
       id="clipPath6299"
       clipPathUnits="userSpaceOnUse">
      <path
         id="path6301"
         d="M 43.362,54.89 L 152.406,54.89 L 152.406,158 L 43.362,158 L 43.362,54.89 z" />
    </clipPath>
    <clipPath
       id="clipPath6287"
       clipPathUnits="userSpaceOnUse">
      <path
         id="path6289"
         d="M 51.892,60.135 L 140.445,60.135 L 140.445,148.727 L 51.892,148.727 L 51.892,60.135 z" />
    </clipPath>
    <clipPath
       id="clipPath6275"
       clipPathUnits="userSpaceOnUse">
      <path
         id="path6277"
         d="M 43.362,54.89 L 152.406,54.89 L 152.406,158 L 43.362,158 L 43.362,54.89 z" />
    </clipPath>
    <clipPath
       id="clipPath6259"
       clipPathUnits="userSpaceOnUse">
      <path
         id="path6261"
         d="M 0,0 L 612,0 L 612,792 L 0,792 L 0,0 z" />
    </clipPath>
    <clipPath
       id="clipPath6245"
       clipPathUnits="userSpaceOnUse">
      <path
         id="path6247"
         d="M 172.939,149.75 L 262.565,149.75 L 262.565,62.312 L 172.939,62.312 L 172.939,149.75 z" />
    </clipPath>
    <clipPath
       id="clipPath6187"
       clipPathUnits="userSpaceOnUse">
      <path
         id="path6189"
         d="M 0,0 L 612,0 L 612,792 L 0,792 L 0,0 z" />
    </clipPath>
    <inkscape:perspective
       id="perspective6179"
       inkscape:persp3d-origin="372.04724 : 350.78739 : 1"
       inkscape:vp_z="744.09448 : 526.18109 : 1"
       inkscape:vp_y="0 : 1000 : 0"
       inkscape:vp_x="0 : 526.18109 : 1"
       sodipodi:type="inkscape:persp3d" />
    <clipPath
       id="clipPath19056"
       clipPathUnits="userSpaceOnUse">
      <path
         id="path19058"
         d="M 0,0 L 612,0 L 612,792 L 0,792 L 0,0 z" />
    </clipPath>
    <clipPath
       id="clipPath19040"
       clipPathUnits="userSpaceOnUse">
      <path
         id="path19042"
         d="M 0,0 L 612,0 L 612,792 L 0,792 L 0,0 z" />
    </clipPath>
    <clipPath
       id="clipPath18884"
       clipPathUnits="userSpaceOnUse">
      <path
         id="path18886"
         d="M 62.094,426.427 L 161.849,326.672 L 199.175,363.999 L 99.421,463.753 L 62.094,426.427 z" />
    </clipPath>
    <clipPath
       id="clipPath18728"
       clipPathUnits="userSpaceOnUse">
      <path
         id="path18730"
         d="M -132.203,621.396 L -29.351,518.545 L 8.077,555.973 L -94.775,658.825 L -132.203,621.396 z" />
    </clipPath>
    <clipPath
       id="clipPath18572"
       clipPathUnits="userSpaceOnUse">
      <path
         id="path18574"
         d="M 155.047,513.519 L 250.596,417.97 L 291.716,459.09 L 196.167,554.639 L 155.047,513.519 z" />
    </clipPath>
    <clipPath
       id="clipPath18416"
       clipPathUnits="userSpaceOnUse">
      <path
         id="path18418"
         d="M -49.539,709.562 L 56.24,603.783 L 97.693,645.236 L -8.086,751.015 L -49.539,709.562 z" />
    </clipPath>
    <clipPath
       id="clipPath18260"
       clipPathUnits="userSpaceOnUse">
      <path
         id="path18262"
         d="M 37.794,794.06 L 92.968,738.886 L 114.326,760.244 L 59.152,815.418 L 37.794,794.06 z" />
    </clipPath>
    <clipPath
       id="clipPath18104"
       clipPathUnits="userSpaceOnUse">
      <path
         id="path18106"
         d="M 89.058,859.63 L 176.561,772.127 L 210.434,806 L 122.931,893.504 L 89.058,859.63 z" />
    </clipPath>
    <clipPath
       id="clipPath17948"
       clipPathUnits="userSpaceOnUse">
      <path
         id="path17950"
         d="M 301.204,932.642 L 485.625,748.221 L 557.015,819.612 L 372.594,1004.032 L 301.204,932.642 z" />
    </clipPath>
    <clipPath
       id="clipPath17818"
       clipPathUnits="userSpaceOnUse">
      <path
         id="path17820"
         d="M 266.004,675.088 L 352.162,675.088 L 352.162,761.246 L 266.004,761.246 L 266.004,675.088 z" />
    </clipPath>
    <clipPath
       id="clipPath17804"
       clipPathUnits="userSpaceOnUse">
      <path
         id="path17806"
         d="M 373.862,31.173 L 460.019,31.173 L 460.019,117.331 L 373.862,117.331 L 373.862,31.173 z" />
    </clipPath>
    <clipPath
       id="clipPath16446"
       clipPathUnits="userSpaceOnUse">
      <path
         id="path16448"
         d="M 158.504,363.519 L 167.893,354.13 L 241.109,354.13 L 158.504,436.735 L 158.504,363.519 z" />
    </clipPath>
    <clipPath
       id="clipPath15754"
       clipPathUnits="userSpaceOnUse">
      <path
         id="path15756"
         d="M 427.319,621.288 L 387.931,581.9 L 427.301,542.53 L 466.689,581.918" />
    </clipPath>
    <clipPath
       id="clipPath15742"
       clipPathUnits="userSpaceOnUse">
      <path
         id="path15744"
         clip-rule="evenodd"
         d="M 381.807,583.36 L 430.287,534.88 L 476.129,580.722 L 427.649,629.202 L 381.807,583.36 z" />
    </clipPath>
    <clipPath
       id="clipPath15672"
       clipPathUnits="userSpaceOnUse">
      <path
         id="path15674"
         d="M 158.504,354.13 L 244.662,354.13 L 244.662,440.288 L 158.504,440.288 L 158.504,354.13 z" />
    </clipPath>
    <clipPath
       id="clipPath14316"
       clipPathUnits="userSpaceOnUse">
      <path
         id="path14318"
         d="M 163.77,440.288 L 244.662,359.397 L 244.662,438.752 L 243.126,440.288 L 163.77,440.288 z" />
    </clipPath>
    <clipPath
       id="clipPath14214"
       clipPathUnits="userSpaceOnUse">
      <path
         id="path14216"
         d="M 158.504,354.13 L 244.662,354.13 L 244.662,440.288 L 158.504,440.288 L 158.504,354.13 z" />
    </clipPath>
    <clipPath
       id="clipPath14056"
       clipPathUnits="userSpaceOnUse">
      <path
         id="path14058"
         d="M -60.404,231.055 L -4.825,175.475 L 15.972,196.272 L -39.608,251.851 L -60.404,231.055 z" />
    </clipPath>
    <clipPath
       id="clipPath13900"
       clipPathUnits="userSpaceOnUse">
      <path
         id="path13902"
         d="M -168.659,339.684 L -111.354,282.379 L -90.501,303.232 L -147.806,360.537 L -168.659,339.684 z" />
    </clipPath>
    <clipPath
       id="clipPath13744"
       clipPathUnits="userSpaceOnUse">
      <path
         id="path13746"
         d="M -8.615,279.579 L 44.621,226.342 L 67.532,249.253 L 14.296,302.489 L -8.615,279.579 z" />
    </clipPath>
    <clipPath
       id="clipPath13588"
       clipPathUnits="userSpaceOnUse">
      <path
         id="path13590"
         d="M -122.602,388.806 L -63.666,329.87 L -40.57,352.966 L -99.506,411.902 L -122.602,388.806 z" />
    </clipPath>
    <clipPath
       id="clipPath13432"
       clipPathUnits="userSpaceOnUse">
      <path
         id="path13434"
         d="M -73.944,435.885 L -43.203,405.144 L -31.303,417.044 L -62.044,447.785 L -73.944,435.885 z" />
    </clipPath>
    <clipPath
       id="clipPath13276"
       clipPathUnits="userSpaceOnUse">
      <path
         id="path13278"
         d="M -45.382,472.418 L 3.372,423.665 L 22.245,442.538 L -26.509,491.291 L -45.382,472.418 z" />
    </clipPath>
    <clipPath
       id="clipPath13268"
       clipPathUnits="userSpaceOnUse">
      <path
         id="path13270"
         d="M 51.429,460.592 L 137.587,460.592 L 137.587,546.75 L 51.429,546.75 L 51.429,460.592 z" />
    </clipPath>
    <clipPath
       id="clipPath13112"
       clipPathUnits="userSpaceOnUse">
      <path
         id="path13114"
         d="M 106.47,546.75 L 72.818,513.098 L 125.324,460.592 L 137.587,460.592 L 137.587,527.881 L 118.717,546.75 L 106.47,546.75 z" />
    </clipPath>
    <clipPath
       id="clipPath13062"
       clipPathUnits="userSpaceOnUse">
      <path
         id="path13064"
         d="M 51.429,460.592 L 137.587,460.592 L 137.587,546.75 L 51.429,546.75 L 51.429,460.592 z" />
    </clipPath>
    <clipPath
       id="clipPath13030"
       clipPathUnits="userSpaceOnUse">
      <path
         id="path13032"
         d="M 51.429,460.592 L 137.587,460.592 L 137.587,546.75 L 51.429,546.75 L 51.429,460.592 z" />
    </clipPath>
    <clipPath
       id="clipPath12954"
       clipPathUnits="userSpaceOnUse">
      <path
         id="path12956"
         d="M 51.429,460.592 L 137.587,460.592 L 137.587,546.75 L 51.429,546.75 L 51.429,460.592 z" />
    </clipPath>
    <clipPath
       id="clipPath12940"
       clipPathUnits="userSpaceOnUse">
      <path
         id="path12942"
         d="M 158.464,460.552 L 244.622,460.552 L 244.622,546.71 L 158.464,546.71 L 158.464,460.552 z" />
    </clipPath>
    <clipPath
       id="clipPath12926"
       clipPathUnits="userSpaceOnUse">
      <path
         id="path12928"
         d="M 265.757,332.165 L 265.757,246.007 L 351.914,246.007 L 351.914,330.844 L 350.594,332.165 L 265.757,332.165 z" />
    </clipPath>
    <clipPath
       id="clipPath12914"
       clipPathUnits="userSpaceOnUse">
      <path
         id="path12916"
         d="M 376.071,439.353 L 373.862,437.143 L 373.862,353.195 L 460.019,353.195 L 460.019,439.353 L 376.071,439.353 z" />
    </clipPath>
    <clipPath
       id="clipPath12756"
       clipPathUnits="userSpaceOnUse">
      <path
         id="path12758"
         d="M 384.963,224.638 L 388.447,221.154 L 391.931,224.638 L 384.963,224.638 z" />
    </clipPath>
    <clipPath
       id="clipPath12600"
       clipPathUnits="userSpaceOnUse">
      <path
         id="path12602"
         d="M 363.918,245.103 L 399.176,280.362 L 366.55,312.988 L 331.292,277.729 L 363.918,245.103 z" />
    </clipPath>
    <clipPath
       id="clipPath12500"
       clipPathUnits="userSpaceOnUse">
      <path
         id="path12502"
         d="M 328.371,160.073 L 366.46,198.162 L 352.476,212.145 L 314.388,174.057 L 328.371,160.073 z" />
    </clipPath>
    <clipPath
       id="clipPath12444"
       clipPathUnits="userSpaceOnUse">
      <path
         id="path12446"
         d="M 305.355,190.275 L 336.602,221.522 L 308.894,249.23 L 277.646,217.983 L 305.355,190.275 z" />
    </clipPath>
    <clipPath
       id="clipPath12392"
       clipPathUnits="userSpaceOnUse">
      <path
         id="path12394"
         d="M 306.532,184.525 L 342.2,220.193 L 309.809,252.584 L 274.141,216.916 L 306.532,184.525 z" />
    </clipPath>
    <clipPath
       id="clipPath12384"
       clipPathUnits="userSpaceOnUse">
      <path
         id="path12386"
         d="M 373.124,224.638 L 373.124,138.481 L 412.437,138.481 L 459.282,185.326 L 459.282,224.638 L 373.124,224.638 z" />
    </clipPath>
    <clipPath
       id="clipPath12064"
       clipPathUnits="userSpaceOnUse">
      <path
         id="path12066"
         d="M 444.835,212.562 L 457.346,200.05 L 459.282,201.986 L 459.282,212.329 L 451.942,219.669 L 444.835,212.562 z" />
    </clipPath>
    <clipPath
       id="clipPath11744"
       clipPathUnits="userSpaceOnUse">
      <path
         id="path11746"
         d="M 432.642,224.638 L 436.241,221.039 L 439.84,224.638 L 432.642,224.638 z" />
    </clipPath>
    <clipPath
       id="clipPath11588"
       clipPathUnits="userSpaceOnUse">
      <path
         id="path11590"
         d="M 411.546,224.638 L 399.983,213.076 L 414.438,198.621 L 429.868,214.051 L 419.28,224.638 L 411.546,224.638 z" />
    </clipPath>
    <clipPath
       id="clipPath11576"
       clipPathUnits="userSpaceOnUse">
      <path
         id="path11578"
         d="M 373.124,224.638 L 373.124,138.481 L 412.437,138.481 L 459.282,185.326 L 459.282,224.638 L 373.124,224.638 z" />
    </clipPath>
    <clipPath
       id="clipPath11420"
       clipPathUnits="userSpaceOnUse">
      <path
         id="path11422"
         d="M 419.447,190.155 L 433.804,175.798 L 445.173,187.167 L 430.816,201.523 L 419.447,190.155 z" />
    </clipPath>
    <clipPath
       id="clipPath11308"
       clipPathUnits="userSpaceOnUse">
      <path
         id="path11310"
         d="M 373.124,180.464 L 373.124,162.043 L 374.118,161.049 L 387.881,174.811 L 377.676,185.016 L 373.124,180.464 z" />
    </clipPath>
    <clipPath
       id="clipPath11276"
       clipPathUnits="userSpaceOnUse">
      <path
         id="path11278"
         d="M 375.181,151.724 L 388.424,138.481 L 403.766,138.481 L 417.009,151.724 L 396.094,172.638 L 375.181,151.724 z" />
    </clipPath>
    <clipPath
       id="clipPath11240"
       clipPathUnits="userSpaceOnUse">
      <path
         id="path11242"
         d="M 373.124,149.794 L 375.157,151.827 L 373.124,153.86 L 373.124,149.794 z" />
    </clipPath>
    <clipPath
       id="clipPath11224"
       clipPathUnits="userSpaceOnUse">
      <path
         id="path11226"
         d="M 373.124,224.638 L 373.124,138.481 L 412.437,138.481 L 459.282,185.326 L 459.282,224.638 L 373.124,224.638 z" />
    </clipPath>
    <clipPath
       id="clipPath11172"
       clipPathUnits="userSpaceOnUse">
      <path
         id="path11174"
         d="M 373.124,144.014 L 373.124,138.481 L 384.762,138.481 L 376.177,147.067 L 373.124,144.014 z" />
    </clipPath>
    <clipPath
       id="clipPath11108"
       clipPathUnits="userSpaceOnUse">
      <path
         id="path11110"
         d="M 373.124,224.638 L 373.124,138.481 L 412.437,138.481 L 459.282,185.326 L 459.282,224.638 L 373.124,224.638 z" />
    </clipPath>
    <clipPath
       id="clipPath10676"
       clipPathUnits="userSpaceOnUse">
      <path
         id="path10678"
         d="M 479.362,353.481 L 565.519,353.481 L 565.519,439.638 L 479.362,439.638 L 479.362,353.481 z" />
    </clipPath>
    <clipPath
       id="clipPath10662"
       clipPathUnits="userSpaceOnUse">
      <path
         id="path10664"
         d="M 264.536,460.652 L 350.693,460.652 L 350.693,546.81 L 264.536,546.81 L 264.536,460.652 z" />
    </clipPath>
    <clipPath
       id="clipPath10648"
       clipPathUnits="userSpaceOnUse">
      <path
         id="path10650"
         d="M 372.481,653.519 L 372.481,567.362 L 458.638,567.362 L 458.638,620.287 L 425.407,653.519 L 372.481,653.519 z" />
    </clipPath>
    <linearGradient
       id="linearGradient10636"
       spreadMethod="pad"
       gradientTransform="matrix(44.18132,-44.18132,-44.18132,-44.18132,397.55582,599.5867)"
       gradientUnits="userSpaceOnUse"
       y2="0"
       x2="1"
       y1="0"
       x1="0">
      <stop
         id="stop10638"
         offset="0"
         style="stop-opacity:1;stop-color:#284574" />
      <stop
         id="stop10640"
         offset="1"
         style="stop-opacity:1;stop-color:#b8bed7" />
    </linearGradient>
    <clipPath
       id="clipPath10632"
       clipPathUnits="userSpaceOnUse">
      <path
         id="path10634"
         d="M 0.00239563,0.00239563 L 0.997604,0.00239563 L 0.997604,0.224335 L 0.00239563,0.224335 L 0.00239563,0.00239563 z" />
    </clipPath>
    <clipPath
       id="clipPath10622"
       clipPathUnits="userSpaceOnUse">
      <path
         id="path10624"
         d="M 387.751,589.57 L 409.959,567.362 L 429.569,567.362 L 397.556,599.376 L 387.751,589.57 z" />
    </clipPath>
    <clipPath
       id="clipPath10606"
       clipPathUnits="userSpaceOnUse">
      <path
         id="path10608"
         d="M 372.481,653.519 L 372.481,567.362 L 458.638,567.362 L 458.638,620.287 L 425.407,653.519 L 372.481,653.519 z" />
    </clipPath>
    <linearGradient
       id="linearGradient10594"
       spreadMethod="pad"
       gradientTransform="matrix(44.18132,-44.18132,-44.18132,-44.18132,419.95386,621.98477)"
       gradientUnits="userSpaceOnUse"
       y2="0"
       x2="1"
       y1="0"
       x1="0">
      <stop
         id="stop10596"
         offset="0"
         style="stop-opacity:1;stop-color:#f78a3e" />
      <stop
         id="stop10598"
         offset="1"
         style="stop-opacity:1;stop-color:#fddfc5" />
    </linearGradient>
    <clipPath
       id="clipPath10590"
       clipPathUnits="userSpaceOnUse">
      <path
         id="path10592"
         d="M 0.00239563,0.00239563 L 0.997604,0.00239563 L 0.997604,0.224335 L 0.00239563,0.224335 L 0.00239563,0.00239563 z" />
    </clipPath>
    <clipPath
       id="clipPath10580"
       clipPathUnits="userSpaceOnUse">
      <path
         id="path10582"
         d="M 410.148,611.968 L 454.118,567.998 L 458.638,572.518 L 458.638,583.089 L 419.953,621.773 L 410.148,611.968 z" />
    </clipPath>
    <linearGradient
       id="linearGradient10568"
       spreadMethod="pad"
       gradientTransform="matrix(44.181335,-44.181335,-44.181335,-44.181335,435.33195,637.36287)"
       gradientUnits="userSpaceOnUse"
       y2="0"
       x2="1"
       y1="0"
       x1="0">
      <stop
         id="stop10570"
         offset="0"
         style="stop-opacity:1;stop-color:#f6804e" />
      <stop
         id="stop10572"
         offset="1"
         style="stop-opacity:1;stop-color:#fdddc9" />
    </linearGradient>
    <clipPath
       id="clipPath10564"
       clipPathUnits="userSpaceOnUse">
      <path
         id="path10566"
         d="M 0.00239563,0.00239563 L 0.997604,0.00239563 L 0.997604,0.224335 L 0.00239563,0.224335 L 0.00239563,0.00239563 z" />
    </clipPath>
    <clipPath
       id="clipPath10554"
       clipPathUnits="userSpaceOnUse">
      <path
         id="path10556"
         d="M 425.526,627.346 L 458.638,594.235 L 458.638,613.845 L 435.332,637.151 L 425.526,627.346 z" />
    </clipPath>
    <clipPath
       id="clipPath10342"
       clipPathUnits="userSpaceOnUse">
      <path
         id="path10344"
         d="M 372.481,653.519 L 372.481,567.362 L 458.638,567.362 L 458.638,620.287 L 425.407,653.519 L 372.481,653.519 z" />
    </clipPath>
    <clipPath
       id="clipPath10324"
       clipPathUnits="userSpaceOnUse">
      <path
         id="path10326"
         d="M 0,0 L 612,0 L 612,792 L 0,792 L 0,0 z" />
    </clipPath>
    <clipPath
       id="clipPath10168"
       clipPathUnits="userSpaceOnUse">
      <path
         id="path10170"
         d="M 87,69.57 L 215.224,69.57 L 215.224,191 L 87,191 L 87,69.57 z" />
    </clipPath>
    <inkscape:perspective
       id="perspective10158"
       inkscape:persp3d-origin="372.04724 : 350.78739 : 1"
       inkscape:vp_z="744.09448 : 526.18109 : 1"
       inkscape:vp_y="0 : 1000 : 0"
       inkscape:vp_x="0 : 526.18109 : 1"
       sodipodi:type="inkscape:persp3d" />
    <clipPath
       id="clipPath28058"
       clipPathUnits="userSpaceOnUse">
      <path
         id="path28060"
         d="M 200.654,123.065 L 415.345,123.065 L 415.345,324.875 L 200.654,324.875 L 200.654,123.065 z" />
    </clipPath>
    <clipPath
       id="clipPath27964"
       clipPathUnits="userSpaceOnUse">
      <path
         id="path27966"
         d="M 0,0 L 612,0 L 612,792 L 0,792 L 0,0 z" />
    </clipPath>
    <inkscape:perspective
       id="perspective27956"
       inkscape:persp3d-origin="372.04724 : 350.78739 : 1"
       inkscape:vp_z="744.09448 : 526.18109 : 1"
       inkscape:vp_y="0 : 1000 : 0"
       inkscape:vp_x="0 : 526.18109 : 1"
       sodipodi:type="inkscape:persp3d" />
    <clipPath
       id="clipPath30341"
       clipPathUnits="userSpaceOnUse">
      <path
         id="path30343"
         d="M 0,0 L 612,0 L 612,792 L 0,792 L 0,0 z" />
    </clipPath>
    <clipPath
       id="clipPath30185"
       clipPathUnits="userSpaceOnUse">
      <path
         id="path30187"
         d="M 365.884,301.461 L 527.961,301.461 L 527.961,373.461 L 365.884,373.461 L 365.884,301.461 z" />
    </clipPath>
    <clipPath
       id="clipPath30029"
       clipPathUnits="userSpaceOnUse">
      <path
         id="path30031"
         d="M 364.5,417.116 L 532.731,417.116 L 532.731,572.786 L 364.5,572.786 L 364.5,417.116 z" />
    </clipPath>
    <clipPath
       id="clipPath29929"
       clipPathUnits="userSpaceOnUse">
      <path
         id="path29931"
         d="M 76.846,299.065 L 258.577,299.065 L 258.577,365.786 L 76.846,365.786 L 76.846,299.065 z" />
    </clipPath>
    <clipPath
       id="clipPath29881"
       clipPathUnits="userSpaceOnUse">
      <path
         id="path29883"
         d="M 83.077,409.5 L 253.261,409.5 L 253.261,564.047 L 83.077,564.047 L 83.077,409.5 z" />
    </clipPath>
    <clipPath
       id="clipPath29865"
       clipPathUnits="userSpaceOnUse">
      <path
         id="path29867"
         d="M 93.986,426.025 L 243.078,426.025 L 243.078,558.23 L 93.986,558.23 L 93.986,426.025 z" />
    </clipPath>
    <clipPath
       id="clipPath29813"
       clipPathUnits="userSpaceOnUse">
      <path
         id="path29815"
         d="M 83.077,409.5 L 253.261,409.5 L 253.261,564.047 L 83.077,564.047 L 83.077,409.5 z" />
    </clipPath>
    <clipPath
       id="clipPath29493"
       clipPathUnits="userSpaceOnUse">
      <path
         id="path29495"
         d="M 479.908,86.745 L 513.821,86.745 L 513.821,146.441 L 479.908,146.441 L 479.908,86.745 z" />
    </clipPath>
    <clipPath
       id="clipPath29173"
       clipPathUnits="userSpaceOnUse">
      <path
         id="path29175"
         d="M 479.63,187.168 L 513.542,187.168 L 513.542,246.864 L 479.63,246.864 L 479.63,187.168 z" />
    </clipPath>
    <clipPath
       id="clipPath29017"
       clipPathUnits="userSpaceOnUse">
      <path
         id="path29019"
         d="M 374.134,185.699 L 447.755,185.699 L 447.755,254.668 L 374.134,254.668 L 374.134,185.699 z" />
    </clipPath>
    <clipPath
       id="clipPath28859"
       clipPathUnits="userSpaceOnUse">
      <path
         id="path28861"
         d="M 365.886,85.05 L 420.131,85.05 L 420.131,153.552 L 365.886,153.552 L 365.886,85.05 z" />
    </clipPath>
    <clipPath
       id="clipPath28755"
       clipPathUnits="userSpaceOnUse">
      <path
         id="path28757"
         d="M 188.311,192.254 L 253.975,192.254 L 253.975,240.942 L 188.311,240.942 L 188.311,192.254 z" />
    </clipPath>
    <clipPath
       id="clipPath28723"
       clipPathUnits="userSpaceOnUse">
      <path
         id="path28725"
         d="M 168.6,67.686 L 268.387,67.686 L 268.387,167.474 L 168.6,167.474 L 168.6,67.686 z" />
    </clipPath>
    <clipPath
       id="clipPath28689"
       clipPathUnits="userSpaceOnUse">
      <path
         id="path28691"
         d="M 69,167.779 L 168.788,167.779 L 168.788,267.567 L 69,267.567 L 69,167.779 z" />
    </clipPath>
    <clipPath
       id="clipPath28633"
       clipPathUnits="userSpaceOnUse">
      <path
         id="path28635"
         d="M 65.756,71.237 L 159.865,71.237 L 159.865,153.987 L 65.756,153.987 L 65.756,71.237 z" />
    </clipPath>
    <clipPath
       id="clipPath28569"
       clipPathUnits="userSpaceOnUse">
      <path
         id="path28571"
         d="M 0,0 L 612,0 L 612,792 L 0,792 L 0,0 z" />
    </clipPath>
    <inkscape:perspective
       id="perspective28561"
       inkscape:persp3d-origin="372.04724 : 350.78739 : 1"
       inkscape:vp_z="744.09448 : 526.18109 : 1"
       inkscape:vp_y="0 : 1000 : 0"
       inkscape:vp_x="0 : 526.18109 : 1"
       sodipodi:type="inkscape:persp3d" />
  </defs>
  <sodipodi:namedview
     id="base"
     pagecolor="#ffffff"
     bordercolor="#666666"
     borderopacity="1.0"
     gridtolerance="10000"
     guidetolerance="10"
     objecttolerance="10"
     inkscape:pageopacity="0.0"
     inkscape:pageshadow="2"
     inkscape:zoom="0.7"
     inkscape:cx="314.8146"
     inkscape:cy="-30.494079"
     inkscape:document-units="px"
     inkscape:current-layer="layer1"
     showgrid="false"
     inkscape:window-width="640"
     inkscape:window-height="672"
     inkscape:window-x="132"
     inkscape:window-y="138"
     units="px" />
  <metadata
     id="metadata7">
    <rdf:RDF>
      <cc:Work
         rdf:about="">
        <dc:format>image/svg+xml</dc:format>
        <dc:type
           rdf:resource="http://purl.org/dc/dcmitype/StillImage" />
      </cc:Work>
    </rdf:RDF>
  </metadata>
  <g
     inkscape:label="Layer 1"
     inkscape:groupmode="layer"
     id="layer1"
     transform="translate(-157.83872,-345.9062)">
    <g
       id="g32218"
       transform="matrix(3.1081571,0,0,3.1081571,-545.78097,-973.43699)">
      <g
         transform="matrix(1.25,0,0,-1.25,304.81092,455.49639)"
         id="g29817">
        <path
           id="path29819"
           style="fill:#f5711f;fill-opacity:1;fill-rule:nonzero;stroke:none"
           d="M 0,0 L -1.792,3.596 L 0,3.596 L 0,0 z M -3.731,-31.159 C -7.47,-33.236 -10.934,-34.706 -21.538,-34.706 C -32.14,-34.706 -35.606,-33.236 -39.345,-31.159 C -39.656,-30.986 -39.932,-30.813 -40.194,-30.64 L -29.097,-30.64 L -29.097,-18.978 L -35.848,-18.978 L -32.853,-13.653 L -9.399,-13.653 L -6.363,-19.134 L -13.953,-19.134 L -13.953,-30.64 L -2.881,-30.64 C -3.141,-30.813 -3.419,-30.986 -3.731,-31.159 M -42.935,0 L -42.935,3.596 L -41.145,3.596 L -42.935,0 z M -21.163,7.085 L -16.092,-1.834 L -26.306,-1.834 L -21.163,7.085 z M 19.67,3.602 L 19.67,15.264 L -5.862,15.264 L -5.862,10.361 L -14.012,24.815 L -29.039,24.815 L -37.213,10.318 L -37.213,15.264 L -62.746,15.264 L -62.746,3.602 L -57.603,3.602 C -57.603,3.602 -57.606,-10.631 -57.612,-19.134 L -62.5,-19.134 L -62.5,-30.64 L -57.376,-30.64 C -56.871,-33.837 -55.437,-37.316 -51.515,-40.205 C -45.306,-44.781 -37.832,-47.828 -21.538,-47.828 C -5.244,-47.827 2.232,-44.781 8.439,-40.205 C 11.719,-37.788 13.235,-33.856 13.936,-30.64 L 19.449,-30.64 L 19.449,-19.134 L 14.535,-19.134 L 14.535,3.602 L 19.67,3.602 z" />
      </g>
      <g
         transform="matrix(1.25,0,0,-1.25,301.55831,496.98462)"
         id="g29821">
        <path
           id="path29823"
           style="fill:#0c2e59;fill-opacity:1;fill-rule:nonzero;stroke:none"
           d="M 0,0 C -4.209,-2.338 -8.181,-3.84 -18.936,-3.84 C -29.689,-3.84 -33.663,-2.338 -37.872,0 C -39.334,0.811 -40.355,1.663 -41.076,2.551 L -52.411,2.551 C -51.921,-0.098 -50.663,-2.839 -47.534,-5.144 C -41.611,-9.507 -34.675,-12.314 -18.936,-12.314 C -3.195,-12.314 3.741,-9.507 9.662,-5.144 C 12.792,-2.839 14.049,-0.098 14.541,2.551 L 3.205,2.551 C 2.485,1.663 1.463,0.811 0,0" />
      </g>
      <g
         transform="matrix(1.25,0,0,-1.25,307.59867,447.69901)"
         id="g29825">
        <path
           id="path29827"
           style="fill:#0c2e59;fill-opacity:1;fill-rule:nonzero;stroke:none"
           d="M 0,0 L 0,-10.227 L 8.538,-25.372 L 9.974,-25.372 L 9.974,-0.312 L 15.116,-0.312 L 15.116,6.701 L -5.768,6.701 L -5.768,0.001 L -5.768,0 L 0,0 z" />
      </g>
      <g
         transform="matrix(1.25,0,0,-1.25,248.18092,460.53699)"
         id="g29829">
        <path
           id="path29831"
           style="fill:#0c2e59;fill-opacity:1;fill-rule:nonzero;stroke:none"
           d="M 0,0 L 0,10.27 L 5.766,10.27 L 5.766,16.972 L -15.117,16.972 L -15.117,9.959 L -9.974,9.959 L -9.974,-15.102 L -8.515,-15.102 L 0,0 z" />
      </g>
      <g
         transform="matrix(1.25,0,0,-1.25,266.89743,460.69549)"
         id="g29833">
        <path
           id="path29835"
           style="fill:#0c2e59;fill-opacity:1;fill-rule:nonzero;stroke:none"
           d="M 0,0 L 18.234,0 L 9.183,15.922 L 0,0 z M 14.961,26.65 L 39.741,-17.299 L 47.454,-17.299 L 47.454,-24.157 L 18.702,-24.157 L 18.702,-17.299 L 27.912,-17.299 L 22.301,-7.169 L -3.881,-7.169 L -9.492,-17.143 L -1.09,-17.143 L -1.09,-24.157 L -29.844,-24.157 L -29.844,-17.299 L -22.13,-17.299 L 2.65,26.65 L 14.961,26.65 z" />
      </g>
      <g
         transform="matrix(1.25,0,0,-1.25,322.45067,504.02039)"
         id="g29837">
        <path
           id="path29839"
           style="fill:#0c2e59;fill-opacity:1;fill-rule:nonzero;stroke:none"
           d="M 0,0 L 0,0.71 L 0.474,0.71 C 0.715,0.71 0.973,0.657 0.973,0.373 C 0.973,0.02 0.709,0 0.417,0 L 0,0 z M 0,-0.294 L 0.4,-0.294 L 1.004,-1.283 L 1.391,-1.283 L 0.74,-0.279 C 1.076,-0.236 1.335,-0.059 1.335,0.352 C 1.335,0.804 1.066,1.003 0.524,1.003 L -0.346,1.003 L -0.346,-1.283 L 0,-1.283 L 0,-0.294 z M 0.42,-2.118 C 1.501,-2.118 2.419,-1.283 2.419,-0.137 C 2.419,1.003 1.501,1.837 0.42,1.837 C -0.673,1.837 -1.598,1.003 -1.598,-0.137 C -1.598,-1.283 -0.673,-2.118 0.42,-2.118 M -1.201,-0.137 C -1.201,0.804 -0.488,1.509 0.42,1.509 C 1.317,1.509 2.023,0.804 2.023,-0.137 C 2.023,-1.089 1.317,-1.79 0.42,-1.79 C -0.488,-1.79 -1.201,-1.089 -1.201,-0.137" />
      </g>
    </g>
  </g>
</svg>
